<svg width="24" height="25" viewBox="0 0 24 25" fill="none" xmlns="http://www.w3.org/2000/svg">
<path fill-rule="evenodd" clip-rule="evenodd" d="M4.47961 2.09961H4.39961C4.03321 2.09961 3.71801 2.09961 3.43961 2.16521C3.00863 2.26819 2.61457 2.48848 2.3011 2.80167C1.98763 3.11486 1.76698 3.50872 1.66361 3.93961C1.59961 4.21801 1.59961 4.53161 1.59961 4.89961V8.89961C1.59961 9.26601 1.59961 9.58121 1.66521 9.85961C1.76819 10.2906 1.98848 10.6846 2.30167 10.9981C2.61486 11.3116 3.00872 11.5322 3.43961 11.6356C3.71801 11.6996 4.03161 11.6996 4.39961 11.6996H8.39961C8.76601 11.6996 9.08121 11.6996 9.35961 11.634C9.79059 11.531 10.1846 11.3107 10.4981 10.9975C10.8116 10.6844 11.0322 10.2905 11.1356 9.85961C11.1996 9.58121 11.1996 9.26761 11.1996 8.89961V4.89961C11.1996 4.53321 11.1996 4.21801 11.134 3.93961C11.031 3.50863 10.8107 3.11457 10.4975 2.8011C10.1844 2.48763 9.7905 2.26698 9.35961 2.16361C9.08121 2.09961 8.76761 2.09961 8.39961 2.09961H4.47961ZM3.81241 3.72201C3.88121 3.70601 3.98841 3.69961 4.47961 3.69961H8.31961C8.81241 3.69961 8.91801 3.70441 8.98681 3.72201C9.13054 3.75638 9.26194 3.82989 9.36643 3.93439C9.47093 4.03888 9.54444 4.17028 9.57881 4.31401C9.59481 4.38121 9.59961 4.48681 9.59961 4.97961V8.81961C9.59961 9.31241 9.59481 9.41801 9.57721 9.48681C9.54284 9.63054 9.46933 9.76194 9.36483 9.86643C9.26034 9.97093 9.12894 10.0444 8.98521 10.0788C8.91961 10.0932 8.81401 10.0996 8.31961 10.0996H4.47961C3.98681 10.0996 3.88121 10.0948 3.81241 10.0772C3.66868 10.0428 3.53728 9.96933 3.43279 9.86483C3.32829 9.76034 3.25478 9.62894 3.22041 9.48521C3.20601 9.41961 3.19961 9.31401 3.19961 8.81961V4.97961C3.19961 4.48681 3.20441 4.38121 3.22201 4.31241C3.25638 4.16868 3.32989 4.03728 3.43439 3.93279C3.53888 3.82829 3.67028 3.75478 3.81401 3.72041L3.81241 3.72201ZM15.6796 2.09961H15.5996C15.2332 2.09961 14.918 2.09961 14.6396 2.16521C14.2086 2.26819 13.8146 2.48848 13.5011 2.80167C13.1876 3.11486 12.967 3.50872 12.8636 3.93961C12.7996 4.21801 12.7996 4.53161 12.7996 4.89961V8.89961C12.7996 9.26601 12.7996 9.58121 12.8652 9.85961C12.9682 10.2906 13.1885 10.6846 13.5017 10.9981C13.8149 11.3116 14.2087 11.5322 14.6396 11.6356C14.918 11.6996 15.2316 11.6996 15.5996 11.6996H19.5996C19.966 11.6996 20.2812 11.6996 20.5596 11.634C20.9906 11.531 21.3847 11.3107 21.6981 10.9975C22.0116 10.6844 22.2322 10.2905 22.3356 9.85961C22.3996 9.58121 22.3996 9.26761 22.3996 8.89961V4.89961C22.3996 4.53321 22.3996 4.21801 22.334 3.93961C22.231 3.50863 22.0107 3.11457 21.6975 2.8011C21.3844 2.48763 20.9905 2.26698 20.5596 2.16361C20.2812 2.09961 19.9676 2.09961 19.5996 2.09961H15.6796ZM15.0124 3.72201C15.0812 3.70601 15.1884 3.69961 15.6796 3.69961H19.5196C20.0124 3.69961 20.118 3.70441 20.1868 3.72201C20.3305 3.75638 20.4619 3.82989 20.5664 3.93439C20.6709 4.03888 20.7444 4.17028 20.7788 4.31401C20.7948 4.38121 20.7996 4.48681 20.7996 4.97961V8.81961C20.7996 9.31241 20.7932 9.41801 20.7772 9.48681C20.7428 9.63054 20.6693 9.76194 20.5648 9.86643C20.4603 9.97093 20.3289 10.0444 20.1852 10.0788C20.118 10.0948 20.0124 10.0996 19.5196 10.0996H15.6796C15.1868 10.0996 15.0812 10.0948 15.0124 10.0772C14.8687 10.0428 14.7373 9.96933 14.6328 9.86483C14.5283 9.76034 14.4548 9.62894 14.4204 9.48521C14.406 9.41961 14.3996 9.31401 14.3996 8.81961V4.97961C14.3996 4.48681 14.4044 4.38121 14.422 4.31241C14.4564 4.16868 14.5299 4.03728 14.6344 3.93279C14.7389 3.82829 14.8703 3.75478 15.014 3.72041L15.0124 3.72201ZM4.39961 13.2996H8.39961C8.76601 13.2996 9.08121 13.2996 9.35961 13.3652C9.79059 13.4682 10.1846 13.6885 10.4981 14.0017C10.8116 14.3149 11.0322 14.7087 11.1356 15.1396C11.1996 15.418 11.1996 15.7316 11.1996 16.0996V20.0996C11.1996 20.466 11.1996 20.7812 11.134 21.0596C11.031 21.4906 10.8107 21.8846 10.4975 22.1981C10.1844 22.5116 9.7905 22.7322 9.35961 22.8356C9.08121 22.8996 8.76761 22.8996 8.39961 22.8996H4.39961C4.03321 22.8996 3.71801 22.8996 3.43961 22.834C3.00863 22.731 2.61457 22.5107 2.3011 22.1975C1.98763 21.8844 1.76698 21.4905 1.66361 21.0596C1.59961 20.7812 1.59961 20.4676 1.59961 20.0996V16.0996C1.59961 15.7332 1.59961 15.418 1.66521 15.1396C1.76819 14.7086 1.98848 14.3146 2.30167 14.0011C2.61486 13.6876 3.00872 13.467 3.43961 13.3636C3.71801 13.2996 4.03161 13.2996 4.39961 13.2996ZM4.47961 14.8996C3.98681 14.8996 3.88121 14.9044 3.81241 14.922C3.66868 14.9564 3.53728 15.0299 3.43279 15.1344C3.32829 15.2389 3.25478 15.3703 3.22041 15.514C3.20601 15.5796 3.19961 15.6852 3.19961 16.1796V20.0196C3.19961 20.5124 3.20441 20.618 3.22201 20.6868C3.25638 20.8305 3.32989 20.9619 3.43439 21.0664C3.53888 21.1709 3.67028 21.2444 3.81401 21.2788C3.88121 21.2948 3.98681 21.2996 4.47961 21.2996H8.31961C8.81241 21.2996 8.91801 21.2932 8.98681 21.2772C9.13054 21.2428 9.26194 21.1693 9.36643 21.0648C9.47093 20.9603 9.54444 20.8289 9.57881 20.6852C9.59481 20.618 9.59961 20.5124 9.59961 20.0196V16.1796C9.59961 15.6868 9.59481 15.5812 9.57721 15.5124C9.54284 15.3687 9.46933 15.2373 9.36483 15.1328C9.26034 15.0283 9.12894 14.9548 8.98521 14.9204C8.91961 14.906 8.81401 14.8996 8.31961 14.8996H4.47961ZM15.6796 13.2996H15.5996C15.2332 13.2996 14.918 13.2996 14.6396 13.3652C14.2086 13.4682 13.8146 13.6885 13.5011 14.0017C13.1876 14.3149 12.967 14.7087 12.8636 15.1396C12.7996 15.418 12.7996 15.7316 12.7996 16.0996V20.0996C12.7996 20.466 12.7996 20.7812 12.8652 21.0596C12.9682 21.4906 13.1885 21.8846 13.5017 22.1981C13.8149 22.5116 14.2087 22.7322 14.6396 22.8356C14.918 22.9012 15.2332 22.9012 15.5996 22.9012H19.5996C19.966 22.9012 20.2812 22.9012 20.5596 22.8356C20.9903 22.7324 21.384 22.512 21.6972 22.1988C22.0104 21.8856 22.2308 21.4919 22.334 21.0612C22.3996 20.7828 22.3996 20.4676 22.3996 20.1012V16.0996C22.3996 15.7332 22.3996 15.418 22.334 15.1396C22.231 14.7086 22.0107 14.3146 21.6975 14.0011C21.3844 13.6876 20.9905 13.467 20.5596 13.3636C20.2812 13.2996 19.9676 13.2996 19.5996 13.2996H15.6796ZM15.0124 14.922C15.0812 14.906 15.1884 14.8996 15.6796 14.8996H19.5196C20.0124 14.8996 20.118 14.9044 20.1868 14.922C20.3305 14.9564 20.4619 15.0299 20.5664 15.1344C20.6709 15.2389 20.7444 15.3703 20.7788 15.514C20.7948 15.5812 20.7996 15.6868 20.7996 16.1796V20.0196C20.7996 20.5124 20.7932 20.618 20.7772 20.6868C20.7428 20.8305 20.6693 20.9619 20.5648 21.0664C20.4603 21.1709 20.3289 21.2444 20.1852 21.2788C20.118 21.2948 20.0124 21.2996 19.5196 21.2996H15.6796C15.1868 21.2996 15.0812 21.2932 15.0124 21.2772C14.8687 21.2428 14.7373 21.1693 14.6328 21.0648C14.5283 20.9603 14.4548 20.8289 14.4204 20.6852C14.406 20.6196 14.3996 20.514 14.3996 20.0196V16.1796C14.3996 15.6868 14.4044 15.5812 14.422 15.5124C14.4564 15.3687 14.5299 15.2373 14.6344 15.1328C14.7389 15.0283 14.8703 14.9548 15.014 14.9204L15.0124 14.922Z" fill="#543B3A"/>
</svg>
