<svg width="24" height="25" viewBox="0 0 24 25" fill="none" xmlns="http://www.w3.org/2000/svg">
<path d="M9 8.5H15V6.5H9V8.5ZM3 20.5C2.71667 20.5 2.479 20.404 2.287 20.212C2.095 20.02 1.99934 19.7827 2 19.5V15.5H6C6 15.7833 6.096 16.021 6.288 16.213C6.48 16.405 6.71734 16.5007 7 16.5C7.28334 16.5 7.521 16.404 7.713 16.212C7.905 16.02 8.00067 15.7827 8 15.5H16C16 15.7833 16.096 16.021 16.288 16.213C16.48 16.405 16.7173 16.5007 17 16.5C17.2833 16.5 17.521 16.404 17.713 16.212C17.905 16.02 18.0007 15.7827 18 15.5H22V19.5C22 19.7833 21.904 20.021 21.712 20.213C21.52 20.405 21.2827 20.5007 21 20.5H3ZM2 14.5V10.5C2 9.95 2.196 9.479 2.588 9.087C2.98 8.695 3.45067 8.49934 4 8.5H7V6.5C7 5.95 7.196 5.479 7.588 5.087C7.98 4.695 8.45067 4.49934 9 4.5H15C15.55 4.5 16.021 4.696 16.413 5.088C16.805 5.48 17.0007 5.95067 17 6.5V8.5H20C20.55 8.5 21.021 8.696 21.413 9.088C21.805 9.48 22.0007 9.95067 22 10.5V14.5H18V13.5C18 13.2167 17.904 12.979 17.712 12.787C17.52 12.595 17.2827 12.4993 17 12.5C16.7167 12.5 16.479 12.596 16.287 12.788C16.095 12.98 15.9993 13.2173 16 13.5V14.5H8V13.5C8 13.2167 7.904 12.979 7.712 12.787C7.52 12.595 7.28267 12.4993 7 12.5C6.71667 12.5 6.479 12.596 6.287 12.788C6.095 12.98 5.99934 13.2173 6 13.5V14.5H2Z" fill="#6D5857"/>
</svg>
