<svg width="24" height="25" viewBox="0 0 24 25" fill="none" xmlns="http://www.w3.org/2000/svg">
<path d="M8.0952 12.75H16.4052M8.0952 18.59H14.4402M8.0952 15.665H12.9652M5.1752 2.75C4.91434 2.75652 4.66636 2.86475 4.4842 3.05159C4.30203 3.23842 4.20011 3.48906 4.2002 3.75V21.3C4.20011 21.5609 4.30203 21.8116 4.4842 21.9984C4.66636 22.1852 4.91434 22.2935 5.1752 22.3H18.8252C19.0904 22.3 19.3448 22.1946 19.5323 22.0071C19.7198 21.8196 19.8252 21.5652 19.8252 21.3V3.725C19.8187 3.46414 19.7104 3.21616 19.5236 3.034C19.3368 2.85184 19.0861 2.74992 18.8252 2.75H17.8252V7.16L15.8952 5.205L13.9552 7.16V2.75H5.1752Z" stroke="#6D5857" stroke-linecap="round" stroke-linejoin="round"/>
</svg>
