<svg width="20" height="21" viewBox="0 0 20 21" fill="none" xmlns="http://www.w3.org/2000/svg">
<path d="M16.3982 16.5572C18.3026 15.8167 18.6914 12.2463 17.2668 8.58243C15.8421 4.91855 13.1434 2.54866 11.2391 3.28913C9.33478 4.02961 8.94593 7.60005 10.3706 11.2639C11.7952 14.9278 14.4939 17.2977 16.3982 16.5572Z" stroke="#543B3A" stroke-width="0.416667" stroke-linecap="round" stroke-linejoin="round"/>
<path d="M15.4275 16.6796L4.2075 16.0767C3.58902 16.0762 2.99599 15.8304 2.55866 15.393C2.12133 14.9557 1.87544 14.3627 1.875 13.7442C1.875 13.1008 2.19667 12.4571 2.59875 12.015L10.6017 3.69043" stroke="#543B3A" stroke-width="0.416667" stroke-linecap="round" stroke-linejoin="round"/>
<path d="M8.10875 16.2772C7.30458 16.1968 6.21875 14.9501 5.535 13.181C4.85166 11.4518 4.81125 9.84304 5.29333 9.19971M8.30958 16.358C8.30958 17.2022 7.62625 17.8455 6.74125 17.8455C5.85625 17.8455 5.17291 17.2022 5.17291 16.398V16.1968M16.2721 9.19971L12.2908 12.658C13.4575 14.7089 14.945 15.9155 15.9908 15.5135C17.2775 14.9905 17.3983 12.1755 16.2721 9.19971ZM15.5887 7.63137L11.5671 11.1297C11.5203 11.025 11.48 10.9176 11.4462 10.808C10.24 7.71179 10.3608 4.81637 11.6475 4.29346C12.7737 3.89137 14.3821 5.33971 15.5887 7.63137Z" stroke="#543B3A" stroke-width="0.416667" stroke-linecap="round" stroke-linejoin="round"/>
</svg>
