<svg width="15" height="18" viewBox="0 0 15 18" fill="none" xmlns="http://www.w3.org/2000/svg">
<path fill-rule="evenodd" clip-rule="evenodd" d="M6.83032 1.05165C7.03519 0.936756 7.26566 0.876465 7.49999 0.876465C7.73432 0.876465 7.96479 0.936756 8.16966 1.05165L14.1892 4.42926C14.6273 4.67498 14.899 5.14109 14.899 5.64774V12.3523C14.899 12.8589 14.6273 13.325 14.1892 13.5708L8.16966 16.9484C7.96479 17.0633 7.73432 17.1236 7.49999 17.1236C7.26566 17.1236 7.03519 17.0633 6.83032 16.9484L0.810813 13.5708C0.595636 13.4501 0.416344 13.2735 0.291534 13.0592C0.166725 12.845 0.100943 12.6009 0.101013 12.3523V5.64774C0.101013 5.14109 0.372727 4.67498 0.810813 4.42926L6.83032 1.05165ZM7.56102 2.15951C7.54236 2.14901 7.52135 2.1435 7.49999 2.1435C7.47863 2.1435 7.45762 2.14901 7.43896 2.15951L1.41945 5.53712C1.40007 5.54803 1.38389 5.56394 1.37258 5.58322C1.36127 5.60251 1.35523 5.62448 1.35508 5.64689V12.3523C1.35508 12.3987 1.38016 12.441 1.41945 12.4638L7.43896 15.8414C7.45762 15.8519 7.47863 15.8574 7.49999 15.8574C7.52135 15.8574 7.54236 15.8519 7.56102 15.8414L13.5805 12.4638C13.6002 12.4527 13.6165 12.4365 13.6278 12.4169C13.6392 12.3973 13.645 12.375 13.6449 12.3523V5.64774C13.6449 5.62518 13.6389 5.60303 13.6276 5.58358C13.6163 5.56414 13.6 5.5481 13.5805 5.53712L7.56102 2.15951Z" fill="#6D5857"/>
<path fill-rule="evenodd" clip-rule="evenodd" d="M3.52881 9.00005C3.52881 7.93629 3.9472 6.9161 4.69195 6.16391C5.43669 5.41171 6.44678 4.98914 7.50001 4.98914C8.55324 4.98914 9.56333 5.41171 10.3081 6.16391C11.0528 6.9161 11.4712 7.93629 11.4712 9.00005C11.4712 10.0638 11.0528 11.084 10.3081 11.8362C9.56333 12.5884 8.55324 13.011 7.50001 13.011C6.44678 13.011 5.43669 12.5884 4.69195 11.8362C3.9472 11.084 3.52881 10.0638 3.52881 9.00005ZM7.50001 6.25574C6.77938 6.25574 6.08827 6.54487 5.5787 7.05953C5.06914 7.57419 4.78287 8.27221 4.78287 9.00005C4.78287 9.72788 5.06914 10.4259 5.5787 10.9406C6.08827 11.4552 6.77938 11.7444 7.50001 11.7444C8.22064 11.7444 8.91176 11.4552 9.42132 10.9406C9.93088 10.4259 10.2172 9.72788 10.2172 9.00005C10.2172 8.27221 9.93088 7.57419 9.42132 7.05953C8.91176 6.54487 8.22064 6.25574 7.50001 6.25574Z" fill="#6D5857"/>
</svg>
