<svg width="24" height="25" viewBox="0 0 24 25" fill="none" xmlns="http://www.w3.org/2000/svg">
<path d="M8.09495 12.75H16.405M8.09495 18.59H14.44M8.09495 15.665H12.965M5.17495 2.75C4.91409 2.75652 4.66611 2.86475 4.48395 3.05159C4.30179 3.23842 4.19987 3.48906 4.19995 3.75V21.3C4.19987 21.5609 4.30179 21.8116 4.48395 21.9984C4.66611 22.1852 4.91409 22.2935 5.17495 22.3H18.825C19.0902 22.3 19.3445 22.1946 19.5321 22.0071C19.7196 21.8196 19.825 21.5652 19.825 21.3V3.725C19.8184 3.46414 19.7102 3.21616 19.5234 3.034C19.3365 2.85184 19.0859 2.74992 18.825 2.75H17.825V7.16L15.895 5.205L13.955 7.16V2.75H5.17495Z" stroke="#6D5857" stroke-linecap="round" stroke-linejoin="round"/>
</svg>
