<svg width="20" height="21" viewBox="0 0 20 21" fill="none" xmlns="http://www.w3.org/2000/svg">
<path d="M16.398 16.5572C18.3023 15.8167 18.6912 12.2463 17.2665 8.58243C15.8419 4.91855 13.1432 2.54866 11.2389 3.28913C9.33453 4.02961 8.94569 7.60005 10.3703 11.2639C11.795 14.9278 14.4937 17.2977 16.398 16.5572Z" stroke="#543B3A" stroke-width="0.416667" stroke-linecap="round" stroke-linejoin="round"/>
<path d="M15.4275 16.6796L4.2075 16.0767C3.58902 16.0762 2.99599 15.8304 2.55866 15.393C2.12133 14.9557 1.87544 14.3627 1.875 13.7442C1.875 13.1008 2.19667 12.4571 2.59875 12.015L10.6017 3.69043" stroke="#543B3A" stroke-width="0.416667" stroke-linecap="round" stroke-linejoin="round"/>
<path d="M8.10826 16.2772C7.30409 16.1968 6.21826 14.9501 5.53451 13.181C4.85117 11.4518 4.81076 9.84304 5.29284 9.19971M8.30909 16.358C8.30909 17.2022 7.62576 17.8455 6.74076 17.8455C5.85576 17.8455 5.17242 17.2022 5.17242 16.398V16.1968M16.2716 9.19971L12.2903 12.658C13.457 14.7089 14.9445 15.9155 15.9903 15.5135C17.277 14.9905 17.3978 12.1755 16.2716 9.19971ZM15.5883 7.63137L11.5666 11.1297C11.5198 11.025 11.4795 10.9176 11.4458 10.808C10.2395 7.71179 10.3603 4.81637 11.647 4.29346C12.7733 3.89137 14.3816 5.33971 15.5883 7.63137Z" stroke="#543B3A" stroke-width="0.416667" stroke-linecap="round" stroke-linejoin="round"/>
</svg>
