<svg width="20" height="20" viewBox="0 0 20 20" fill="none" xmlns="http://www.w3.org/2000/svg">
<path d="M9.375 15.8333C9.375 15.6675 9.44085 15.5086 9.55806 15.3913C9.67527 15.2741 9.83424 15.2083 10 15.2083H15C15.0553 15.2083 15.1082 15.1863 15.1473 15.1473C15.1864 15.1082 15.2083 15.0552 15.2083 15V4.99996C15.2083 4.94471 15.1864 4.89172 15.1473 4.85265C15.1082 4.81358 15.0553 4.79163 15 4.79163H10C9.83424 4.79163 9.67527 4.72578 9.55806 4.60857C9.44085 4.49136 9.375 4.33239 9.375 4.16663C9.375 4.00087 9.44085 3.84189 9.55806 3.72468C9.67527 3.60747 9.83424 3.54163 10 3.54163H15C15.805 3.54163 16.4583 4.19496 16.4583 4.99996V15C16.4583 15.3867 16.3047 15.7577 16.0312 16.0312C15.7577 16.3046 15.3868 16.4583 15 16.4583H10C9.83424 16.4583 9.67527 16.3924 9.55806 16.2752C9.44085 16.158 9.375 15.9991 9.375 15.8333Z" fill="#FF0000"/>
<path d="M13.01 10.9292C13.01 11.1502 12.9222 11.3622 12.7659 11.5185C12.6097 11.6748 12.3977 11.7626 12.1767 11.7626H8.13001C8.11085 12.0592 8.08668 12.3542 8.05835 12.6509L8.03335 12.9051C8.02404 13.0008 7.99176 13.093 7.93925 13.1736C7.88674 13.2543 7.81555 13.3211 7.73171 13.3684C7.64788 13.4156 7.55388 13.442 7.45769 13.4452C7.36151 13.4484 7.26596 13.4283 7.17918 13.3867C5.65583 12.6566 4.27677 11.6576 3.10835 10.4376L3.08335 10.4117C2.97609 10.2999 2.9162 10.1509 2.9162 9.99589C2.9162 9.84091 2.97609 9.69192 3.08335 9.58005L3.10835 9.55422C4.27676 8.3342 5.65582 7.33513 7.17918 6.60505C7.26596 6.56345 7.36151 6.5434 7.45769 6.54659C7.55388 6.54979 7.64788 6.57615 7.73171 6.62342C7.81555 6.67069 7.88674 6.73749 7.93925 6.81814C7.99176 6.8988 8.02404 6.99093 8.03335 7.08672L8.05835 7.34089C8.08668 7.63672 8.11085 7.93255 8.13001 8.22922H12.1767C12.3977 8.22922 12.6097 8.31702 12.7659 8.4733C12.9222 8.62958 13.01 8.84154 13.01 9.06255V10.9292Z" fill="#FF0000"/>
</svg>
