<svg width="21" height="20" viewBox="0 0 21 20" fill="none" xmlns="http://www.w3.org/2000/svg">
<path fill-rule="evenodd" clip-rule="evenodd" d="M9.83032 2.05165C10.0352 1.93676 10.2657 1.87646 10.5 1.87646C10.7343 1.87646 10.9648 1.93676 11.1697 2.05165L17.1892 5.42926C17.6273 5.67498 17.899 6.14109 17.899 6.64774V13.3523C17.899 13.8589 17.6273 14.325 17.1892 14.5708L11.1697 17.9484C10.9648 18.0633 10.7343 18.1236 10.5 18.1236C10.2657 18.1236 10.0352 18.0633 9.83032 17.9484L3.81081 14.5708C3.59564 14.4501 3.41634 14.2735 3.29153 14.0592C3.16672 13.845 3.10094 13.6009 3.10101 13.3523V6.64774C3.10101 6.14109 3.37273 5.67498 3.81081 5.42926L9.83032 2.05165ZM10.561 3.15951C10.5424 3.14901 10.5214 3.1435 10.5 3.1435C10.4786 3.1435 10.4576 3.14901 10.439 3.15951L4.41945 6.53712C4.40007 6.54803 4.38389 6.56394 4.37258 6.58322C4.36127 6.60251 4.35523 6.62448 4.35508 6.64689V13.3523C4.35508 13.3987 4.38016 13.441 4.41945 13.4638L10.439 16.8414C10.4576 16.8519 10.4786 16.8574 10.5 16.8574C10.5214 16.8574 10.5424 16.8519 10.561 16.8414L16.5805 13.4638C16.6002 13.4527 16.6165 13.4365 16.6278 13.4169C16.6392 13.3973 16.645 13.375 16.6449 13.3523V6.64774C16.6449 6.62518 16.6389 6.60303 16.6276 6.58358C16.6163 6.56414 16.6 6.5481 16.5805 6.53712L10.561 3.15951Z" fill="#6D5857"/>
<path fill-rule="evenodd" clip-rule="evenodd" d="M6.52881 10C6.52881 8.93629 6.9472 7.9161 7.69195 7.16391C8.43669 6.41171 9.44678 5.98914 10.5 5.98914C11.5532 5.98914 12.5633 6.41171 13.3081 7.16391C14.0528 7.9161 14.4712 8.93629 14.4712 10C14.4712 11.0638 14.0528 12.084 13.3081 12.8362C12.5633 13.5884 11.5532 14.011 10.5 14.011C9.44678 14.011 8.43669 13.5884 7.69195 12.8362C6.9472 12.084 6.52881 11.0638 6.52881 10ZM10.5 7.25574C9.77938 7.25574 9.08827 7.54487 8.5787 8.05953C8.06914 8.57419 7.78287 9.27221 7.78287 10C7.78287 10.7279 8.06914 11.4259 8.5787 11.9406C9.08827 12.4552 9.77938 12.7444 10.5 12.7444C11.2206 12.7444 11.9118 12.4552 12.4213 11.9406C12.9309 11.4259 13.2172 10.7279 13.2172 10C13.2172 9.27221 12.9309 8.57419 12.4213 8.05953C11.9118 7.54487 11.2206 7.25574 10.5 7.25574Z" fill="#6D5857"/>
</svg>
