<svg width="43" height="43" viewBox="0 0 43 43" fill="none" xmlns="http://www.w3.org/2000/svg">
<circle cx="21.5" cy="21.5" r="21.5" fill="#DDD8D8"/>
<path d="M18 17H24V15H18V17ZM12 29C11.7167 29 11.479 28.904 11.287 28.712C11.095 28.52 10.9993 28.2827 11 28V24H15C15 24.2833 15.096 24.521 15.288 24.713C15.48 24.905 15.7173 25.0007 16 25C16.2833 25 16.521 24.904 16.713 24.712C16.905 24.52 17.0007 24.2827 17 24H25C25 24.2833 25.096 24.521 25.288 24.713C25.48 24.905 25.7173 25.0007 26 25C26.2833 25 26.521 24.904 26.713 24.712C26.905 24.52 27.0007 24.2827 27 24H31V28C31 28.2833 30.904 28.521 30.712 28.713C30.52 28.905 30.2827 29.0007 30 29H12ZM11 23V19C11 18.45 11.196 17.979 11.588 17.587C11.98 17.195 12.4507 16.9993 13 17H16V15C16 14.45 16.196 13.979 16.588 13.587C16.98 13.195 17.4507 12.9993 18 13H24C24.55 13 25.021 13.196 25.413 13.588C25.805 13.98 26.0007 14.4507 26 15V17H29C29.55 17 30.021 17.196 30.413 17.588C30.805 17.98 31.0007 18.4507 31 19V23H27V22C27 21.7167 26.904 21.479 26.712 21.287C26.52 21.095 26.2827 20.9993 26 21C25.7167 21 25.479 21.096 25.287 21.288C25.095 21.48 24.9993 21.7173 25 22V23H17V22C17 21.7167 16.904 21.479 16.712 21.287C16.52 21.095 16.2827 20.9993 16 21C15.7167 21 15.479 21.096 15.287 21.288C15.095 21.48 14.9993 21.7173 15 22V23H11Z" fill="#6D5857"/>
</svg>
