<svg width="43" height="43" viewBox="0 0 43 43" fill="none" xmlns="http://www.w3.org/2000/svg">
<circle cx="21.5" cy="21.5" r="21.5" fill="#DDD8D8"/>
<path fill-rule="evenodd" clip-rule="evenodd" d="M14.25 12H12.75V19.5H14.25V12ZM23.4 19.5H18.6L18 18.675V17.175L18.6 16.5H23.4L24 17.25V18.75L23.4 19.5ZM15.9 24H11.1L10.5 23.25V21.75L11.1 21H15.9L16.5 21.75V23.25L15.9 24ZM21.75 12H20.25V15H21.75V12ZM20.25 21H21.75V30H20.25V21ZM14.25 25.5H12.75V30H14.25V25.5ZM26.1 25.5H30.885L31.485 24.75V23.325L30.885 22.575H26.1L25.5 23.325V24.75L26.1 25.5ZM29.25 12H27.75V21H29.25V12ZM27.75 27H29.25V30H27.75V27Z" fill="#6D5857"/>
</svg>
