<svg width="43" height="43" viewBox="0 0 43 43" fill="none" xmlns="http://www.w3.org/2000/svg">
<circle cx="21.5" cy="21.5" r="21.5" fill="#DDD8D8"/>
<path d="M17.095 21.25H25.405M17.095 27.09H23.44M17.095 24.165H21.965M14.175 11.25C13.9141 11.2565 13.6662 11.3648 13.484 11.5516C13.3018 11.7384 13.1999 11.9891 13.2 12.25V29.8C13.1999 30.0609 13.3018 30.3116 13.484 30.4984C13.6662 30.6852 13.9141 30.7935 14.175 30.8H27.825C28.0902 30.8 28.3446 30.6946 28.5321 30.5071C28.7196 30.3196 28.825 30.0652 28.825 29.8V12.225C28.8185 11.9641 28.7102 11.7162 28.5234 11.534C28.3366 11.3518 28.0859 11.2499 27.825 11.25H26.825V15.66L24.895 13.705L22.955 15.66V11.25H14.175Z" stroke="black" stroke-linecap="round" stroke-linejoin="round"/>
</svg>
