<svg width="24" height="24" viewBox="0 0 24 24" fill="none" xmlns="http://www.w3.org/2000/svg">
<path d="M9 8H15V6H9V8ZM3 20C2.71667 20 2.479 19.904 2.287 19.712C2.095 19.52 1.99934 19.2827 2 19V15H6C6 15.2833 6.096 15.521 6.288 15.713C6.48 15.905 6.71734 16.0007 7 16C7.28334 16 7.521 15.904 7.713 15.712C7.905 15.52 8.00067 15.2827 8 15H16C16 15.2833 16.096 15.521 16.288 15.713C16.48 15.905 16.7173 16.0007 17 16C17.2833 16 17.521 15.904 17.713 15.712C17.905 15.52 18.0007 15.2827 18 15H22V19C22 19.2833 21.904 19.521 21.712 19.713C21.52 19.905 21.2827 20.0007 21 20H3ZM2 14V10C2 9.45 2.196 8.979 2.588 8.587C2.98 8.195 3.45067 7.99934 4 8H7V6C7 5.45 7.196 4.979 7.588 4.587C7.98 4.195 8.45067 3.99934 9 4H15C15.55 4 16.021 4.196 16.413 4.588C16.805 4.98 17.0007 5.45067 17 6V8H20C20.55 8 21.021 8.196 21.413 8.588C21.805 8.98 22.0007 9.45067 22 10V14H18V13C18 12.7167 17.904 12.479 17.712 12.287C17.52 12.095 17.2827 11.9993 17 12C16.7167 12 16.479 12.096 16.287 12.288C16.095 12.48 15.9993 12.7173 16 13V14H8V13C8 12.7167 7.904 12.479 7.712 12.287C7.52 12.095 7.28267 11.9993 7 12C6.71667 12 6.479 12.096 6.287 12.288C6.095 12.48 5.99934 12.7173 6 13V14H2Z" fill="#6D5857"/>
</svg>
