<svg width="24" height="25" viewBox="0 0 24 25" fill="none" xmlns="http://www.w3.org/2000/svg">
<path fill-rule="evenodd" clip-rule="evenodd" d="M4.4801 2.09961H4.4001C4.0337 2.09961 3.7185 2.09961 3.4401 2.16521C3.00912 2.26819 2.61506 2.48848 2.30159 2.80167C1.98812 3.11486 1.76747 3.50872 1.6641 3.93961C1.6001 4.21801 1.6001 4.53161 1.6001 4.89961V8.89961C1.6001 9.26601 1.6001 9.58121 1.6657 9.85961C1.76868 10.2906 1.98897 10.6846 2.30216 10.9981C2.61535 11.3116 3.00921 11.5322 3.4401 11.6356C3.7185 11.6996 4.0321 11.6996 4.4001 11.6996H8.4001C8.7665 11.6996 9.0817 11.6996 9.3601 11.634C9.79108 11.531 10.1851 11.3107 10.4986 10.9975C10.8121 10.6844 11.0327 10.2905 11.1361 9.85961C11.2001 9.58121 11.2001 9.26761 11.2001 8.89961V4.89961C11.2001 4.53321 11.2001 4.21801 11.1345 3.93961C11.0315 3.50863 10.8112 3.11457 10.498 2.8011C10.1848 2.48763 9.79099 2.26698 9.3601 2.16361C9.0817 2.09961 8.7681 2.09961 8.4001 2.09961H4.4801ZM3.8129 3.72201C3.8817 3.70601 3.9889 3.69961 4.4801 3.69961H8.3201C8.8129 3.69961 8.9185 3.70441 8.9873 3.72201C9.13103 3.75638 9.26242 3.82989 9.36692 3.93439C9.47142 4.03888 9.54493 4.17028 9.5793 4.31401C9.5953 4.38121 9.6001 4.48681 9.6001 4.97961V8.81961C9.6001 9.31241 9.5953 9.41801 9.5777 9.48681C9.54333 9.63054 9.46982 9.76194 9.36532 9.86643C9.26082 9.97093 9.12943 10.0444 8.9857 10.0788C8.9201 10.0932 8.8145 10.0996 8.3201 10.0996H4.4801C3.9873 10.0996 3.8817 10.0948 3.8129 10.0772C3.66917 10.0428 3.53777 9.96933 3.43327 9.86483C3.32878 9.76034 3.25527 9.62894 3.2209 9.48521C3.2065 9.41961 3.2001 9.31401 3.2001 8.81961V4.97961C3.2001 4.48681 3.2049 4.38121 3.2225 4.31241C3.25687 4.16868 3.33038 4.03728 3.43487 3.93279C3.53937 3.82829 3.67077 3.75478 3.8145 3.72041L3.8129 3.72201ZM15.6801 2.09961H15.6001C15.2337 2.09961 14.9185 2.09961 14.6401 2.16521C14.2091 2.26819 13.8151 2.48848 13.5016 2.80167C13.1881 3.11486 12.9675 3.50872 12.8641 3.93961C12.8001 4.21801 12.8001 4.53161 12.8001 4.89961V8.89961C12.8001 9.26601 12.8001 9.58121 12.8657 9.85961C12.9687 10.2906 13.189 10.6846 13.5022 10.9981C13.8154 11.3116 14.2092 11.5322 14.6401 11.6356C14.9185 11.6996 15.2321 11.6996 15.6001 11.6996H19.6001C19.9665 11.6996 20.2817 11.6996 20.5601 11.634C20.9911 11.531 21.3851 11.3107 21.6986 10.9975C22.0121 10.6844 22.2327 10.2905 22.3361 9.85961C22.4001 9.58121 22.4001 9.26761 22.4001 8.89961V4.89961C22.4001 4.53321 22.4001 4.21801 22.3345 3.93961C22.2315 3.50863 22.0112 3.11457 21.698 2.8011C21.3848 2.48763 20.991 2.26698 20.5601 2.16361C20.2817 2.09961 19.9681 2.09961 19.6001 2.09961H15.6801ZM15.0129 3.72201C15.0817 3.70601 15.1889 3.69961 15.6801 3.69961H19.5201C20.0129 3.69961 20.1185 3.70441 20.1873 3.72201C20.331 3.75638 20.4624 3.82989 20.5669 3.93439C20.6714 4.03888 20.7449 4.17028 20.7793 4.31401C20.7953 4.38121 20.8001 4.48681 20.8001 4.97961V8.81961C20.8001 9.31241 20.7937 9.41801 20.7777 9.48681C20.7433 9.63054 20.6698 9.76194 20.5653 9.86643C20.4608 9.97093 20.3294 10.0444 20.1857 10.0788C20.1185 10.0948 20.0129 10.0996 19.5201 10.0996H15.6801C15.1873 10.0996 15.0817 10.0948 15.0129 10.0772C14.8692 10.0428 14.7378 9.96933 14.6333 9.86483C14.5288 9.76034 14.4553 9.62894 14.4209 9.48521C14.4065 9.41961 14.4001 9.31401 14.4001 8.81961V4.97961C14.4001 4.48681 14.4049 4.38121 14.4225 4.31241C14.4569 4.16868 14.5304 4.03728 14.6349 3.93279C14.7394 3.82829 14.8708 3.75478 15.0145 3.72041L15.0129 3.72201ZM4.4001 13.2996H8.4001C8.7665 13.2996 9.0817 13.2996 9.3601 13.3652C9.79108 13.4682 10.1851 13.6885 10.4986 14.0017C10.8121 14.3149 11.0327 14.7087 11.1361 15.1396C11.2001 15.418 11.2001 15.7316 11.2001 16.0996V20.0996C11.2001 20.466 11.2001 20.7812 11.1345 21.0596C11.0315 21.4906 10.8112 21.8846 10.498 22.1981C10.1848 22.5116 9.79099 22.7322 9.3601 22.8356C9.0817 22.8996 8.7681 22.8996 8.4001 22.8996H4.4001C4.0337 22.8996 3.7185 22.8996 3.4401 22.834C3.00912 22.731 2.61506 22.5107 2.30159 22.1975C1.98812 21.8844 1.76747 21.4905 1.6641 21.0596C1.6001 20.7812 1.6001 20.4676 1.6001 20.0996V16.0996C1.6001 15.7332 1.6001 15.418 1.6657 15.1396C1.76868 14.7086 1.98897 14.3146 2.30216 14.0011C2.61535 13.6876 3.00921 13.467 3.4401 13.3636C3.7185 13.2996 4.0321 13.2996 4.4001 13.2996ZM4.4801 14.8996C3.9873 14.8996 3.8817 14.9044 3.8129 14.922C3.66917 14.9564 3.53777 15.0299 3.43327 15.1344C3.32878 15.2389 3.25527 15.3703 3.2209 15.514C3.2065 15.5796 3.2001 15.6852 3.2001 16.1796V20.0196C3.2001 20.5124 3.2049 20.618 3.2225 20.6868C3.25687 20.8305 3.33038 20.9619 3.43487 21.0664C3.53937 21.1709 3.67077 21.2444 3.8145 21.2788C3.8817 21.2948 3.9873 21.2996 4.4801 21.2996H8.3201C8.8129 21.2996 8.9185 21.2932 8.9873 21.2772C9.13103 21.2428 9.26242 21.1693 9.36692 21.0648C9.47142 20.9603 9.54493 20.8289 9.5793 20.6852C9.5953 20.618 9.6001 20.5124 9.6001 20.0196V16.1796C9.6001 15.6868 9.5953 15.5812 9.5777 15.5124C9.54333 15.3687 9.46982 15.2373 9.36532 15.1328C9.26082 15.0283 9.12943 14.9548 8.9857 14.9204C8.9201 14.906 8.8145 14.8996 8.3201 14.8996H4.4801ZM15.6801 13.2996H15.6001C15.2337 13.2996 14.9185 13.2996 14.6401 13.3652C14.2091 13.4682 13.8151 13.6885 13.5016 14.0017C13.1881 14.3149 12.9675 14.7087 12.8641 15.1396C12.8001 15.418 12.8001 15.7316 12.8001 16.0996V20.0996C12.8001 20.466 12.8001 20.7812 12.8657 21.0596C12.9687 21.4906 13.189 21.8846 13.5022 22.1981C13.8154 22.5116 14.2092 22.7322 14.6401 22.8356C14.9185 22.9012 15.2337 22.9012 15.6001 22.9012H19.6001C19.9665 22.9012 20.2817 22.9012 20.5601 22.8356C20.9908 22.7324 21.3845 22.512 21.6977 22.1988C22.0108 21.8856 22.2313 21.4919 22.3345 21.0612C22.4001 20.7828 22.4001 20.4676 22.4001 20.1012V16.0996C22.4001 15.7332 22.4001 15.418 22.3345 15.1396C22.2315 14.7086 22.0112 14.3146 21.698 14.0011C21.3848 13.6876 20.991 13.467 20.5601 13.3636C20.2817 13.2996 19.9681 13.2996 19.6001 13.2996H15.6801ZM15.0129 14.922C15.0817 14.906 15.1889 14.8996 15.6801 14.8996H19.5201C20.0129 14.8996 20.1185 14.9044 20.1873 14.922C20.331 14.9564 20.4624 15.0299 20.5669 15.1344C20.6714 15.2389 20.7449 15.3703 20.7793 15.514C20.7953 15.5812 20.8001 15.6868 20.8001 16.1796V20.0196C20.8001 20.5124 20.7937 20.618 20.7777 20.6868C20.7433 20.8305 20.6698 20.9619 20.5653 21.0664C20.4608 21.1709 20.3294 21.2444 20.1857 21.2788C20.1185 21.2948 20.0129 21.2996 19.5201 21.2996H15.6801C15.1873 21.2996 15.0817 21.2932 15.0129 21.2772C14.8692 21.2428 14.7378 21.1693 14.6333 21.0648C14.5288 20.9603 14.4553 20.8289 14.4209 20.6852C14.4065 20.6196 14.4001 20.514 14.4001 20.0196V16.1796C14.4001 15.6868 14.4049 15.5812 14.4225 15.5124C14.4569 15.3687 14.5304 15.2373 14.6349 15.1328C14.7394 15.0283 14.8708 14.9548 15.0145 14.9204L15.0129 14.922Z" fill="#543B3A"/>
</svg>
